<svg xmlns="http://www.w3.org/2000/svg" width="549.959" height="457.436" viewBox="0 0 145.51 121.03" xmlns:v="https://vecta.io/nano"><style><![CDATA[.B{stroke-opacity:.857}.C{fill-opacity:.829}.D{fill-opacity:.648}]]></style><defs><linearGradient id="A" x1="83.271" x2="228.66" y1="111.36" y2="111.36" gradientUnits="userSpaceOnUse"><stop stop-color="#232323" offset=".265"/><stop stop-color="#eaeaea" offset="1"/></linearGradient></defs><path d="M55.991 104.719l9.17 8.137 78.915-89.636-1.033-3.875-2.454.904z" fill="#5b5b5b" class="D"/><path d="M57.951 104.479l2.831 1.37 3.699 1.918.297.023 3.082-3.265 13.929-15.624 17.275-19.212 17.792-20.116 10.752-12.076 10.785-11.85 3.261-3.616.904-.969-3.487-.936-78.302 82.726-10.139-4.262 2.26 3.487z" fill="#c6c6c6" fill-opacity=".439"/><g stroke="#4c8134" stroke-linejoin="round" stroke-width=".265"><path d="M143.391 19.82L121.794 9.66 34.677 86.186l4.069 5.296 8.331-7.297L81.497 52.54l29.254-26.929 10.822-9.63 7.683 1.784 13.551 3.237z" class="D"/><path d="M86.397 130.05l53.336 39.089s2.101 1.279 4.018-1.187l4.384-5.206-28.951-22.375-.1-.3 86.314-76.051 15.206 7.398 5.818 1.472.056.301-.218.161-.186.315-.065.5.735.509 1.784-1.978s.024-.387-.274-.686-.953-.654-.953-.654-10.706-6.428-20.626-10.763c-6.1-2.666-17.977-6.996-17.977-6.996s-2.244-.484-3.358-.323-1.776.371-1.776.371l-1.792 1.001-6.948 4.394-5.48 3.516-54.686 37.957-8.944 6.684-17.598 13.206-2.793 2.147s-1.421 1.146-1.695 2.309c-.266 1.128-.31 1.353-.065 2.115.384 1.193 2.832 3.073 2.832 3.073z" fill="url(#A)" transform="translate(-83.239 -53.111)" class="D"/><path d="M.132 73.269l.387 8.298s.081.791.339 1.292 1.082 1.292 1.082 1.292l7.459 5.554 7.846 5.78 10.785 7.523 6.91 4.553 11.883 7.427 9.332 5.36s1.033.613 1.679.549 1.098-.363 1.098-.363l.444-.315.638-.71 5.602-6.232 17.598-20.084 9.267-10.526 11.656-13.271 8.944-10.333 15.111-17.339 10.268-11.786 5.893-6.652.42-.476.113-.178.016-.202.428-2.293.048-.557-1.865 1.986-.04.194-.331 1.849-1.622 1.766-6.678 7.478-8.516 9.601-6.678 7.637-7.58 8.63-5.388 6.199-6.895 7.866-6.964 7.911-7.557 8.585-8.539 9.53-6.329 7.233-4.747 5.328-.21.178-.21-1.889-.258-.048-4.8 5.664s-.297.571-1.142.868-1.404.228-1.404.228-.468.011-.742-.103-1.347-.959-1.347-.959l-6.79-4.907-9.541-7.023-8.266-6.038-14.401-10.51-12.109-8.896-1.829-1.372-1.359-1.256-.719-.948z" fill="#494949"/><path d="M53.321 100.659l11.416 6.005 44.147-48.962 33.71-36.616-21.053-5.037-26.8 24.217L65.68 67.002 40.074 90.315z" fill="#eee" class="B"/><g fill="#1c1c1c" class="B"><path d="M42.821 87.829l14.401 7.33 1.647 2.486-1.614 1.679L40.4 90.477l-.323-.291zm4.58-3.9l13.981 6.652 1.873 2.454-1.614 1.776-16.92-8.492zm5.69-5.33l13.981 6.167 1.679 2.486-1.421 1.582-16.791-7.976zm3.64-3.49l14.078 5.974 1.518 2.454-1.356 1.485-16.629-7.717zm3.65-3.32l13.917 5.812 1.485 2.422-1.292 1.388-16.661-7.265zm5.44-4.78l13.634 5.647 1.455 2.353-1.265 1.349L63.323 69.3zm3.53-3.16l13.634 5.233 1.455 2.18-1.265 1.25-16.322-6.541zm4.71-4.39l13.457 5.04 1.436 2.1-1.249 1.204-16.11-6.3zm16.27 1.8l-13.357-4.612-1.119 1.05-1.027.959 15.686 6.096 1.256-1.256zm2.83-2.81l-13.267-4.391-1.111 1-1.02.913 15.58 5.804 1.247-1.196zm4.29-4.13L84.184 50.11l-1.111.959-1.02.875 15.58 5.564 1.247-1.146zm2.82-3.05l-13.213-3.805-1.107.944-1.016.862 15.517 5.067 1.242-1.127zm-9.1-7.572l12.877 3.722 1.301 2.055-.959 1.005-15.275-4.955zm2.47-2.335l12.877 3.722 1.301 2.055-.959 1.005-15.275-4.955z" fill-opacity=".861"/><path d="M96.091 39.067l12.787 3.525 1.292 1.947-.952.952-15.167-4.693zm3.78-3.338l12.466 3.174 1.324 2.032-1.005 1.027-14.727-4.407zm2.61-2.283l12.215 2.991 1.256 2.123-.936.845-14.681-4.247zm3.22-3.083l12.17 2.945 1.005 2.032-.731.822-14.384-3.996z" class="C"/><path d="M107.831 28.275l12.17 2.945 1.005 2.032-.731.822-14.384-3.996z" class="C"/><path d="M109.731 26.491l12.078 2.899.997 2-.725.809-14.276-3.933zm3.13-2.681l11.85 2.557 1.05 2.055-.639.731-14.065-3.676z" class="C"/><path d="M115.131 21.824l11.507 2.603 1.119 2.009-.639.616-13.745-3.562zm6.39-5.799l11.096 2.466 1.027 1.872-.479.571-13.585-3.265z" class="C"/><path d="M119.841 17.585l11.096 2.466 1.027 1.872-.479.571-13.585-3.265z" class="C"/><path d="M118.041 19.328l11.241 2.466 1.041 1.872-.486.571-13.762-3.265z" class="C"/></g></g></svg>