<svg xmlns="http://www.w3.org/2000/svg" xmlns:xlink="http://www.w3.org/1999/xlink" width="413.994" height="177.608" viewBox="0 0 109.536 46.992" xmlns:v="https://vecta.io/nano"><style><![CDATA[.B{stroke-linejoin:round}.C{stroke:#41473c}.D{stroke-linecap:round}.E{stroke-width:.765}.F{fill:#e1f0da}.G{fill:#41473c}]]></style><g transform="translate(-21.637 -190.114)"><g class="F"><g class="B C D E"><path d="M108.681 207.361c.323.457.599.948.822 1.461.287.661.488 1.39.365 2.101-.081.468-.302.908-.617 1.264a3 3 0 0 1-1.163.799c-.886.343-1.897.278-2.786-.054a5.02 5.02 0 0 1-2.649-6.941c-.303-1.499-.396-3.041-.274-4.566.168-2.109.768-4.223 2.009-5.936.607-.837 1.394-1.59 2.375-1.918.561-.188 1.166-.229 1.755-.167a6.77 6.77 0 0 1 1.716.441c1.078.417 2.087 1.028 2.923 1.827.923.882 1.634 2.006 1.92 3.25s.123 2.607-.55 3.691a4.4 4.4 0 0 1-2.847 1.97l1.302.601c.64.311 1.283.649 1.776 1.162.449.468.76 1.095.743 1.744-.016.6-.315 1.175-.755 1.584s-1.012.659-1.602.773c-.48.094-.98.101-1.459.002s-.938-.306-1.318-.615c-.351-.286-.628-.652-.872-1.033-.296-.463-.547-.953-.75-1.463"/><path d="M91.509 197.59c-2.282 2.156-1.806 12.392 3.281 14.947 4.145 2.082 10.832-2.513 10.787-5.27-.085-5.199-7.582-.358-6.933-.65 5.479-2.466 7.606-7.181-.809-5.288-2.003.451 6.808-.901 5.406-5.026-1.772-5.211-10.274-.521-11.793 1.348"/><path d="M79.405 196.733c-1.088 2.99-2.776 7.446-1.867 10.718 1.928 6.942 15.664 7.29 17.276.514.735-3.089-2.177-4.822-4.53-4.725-1.206.05-1.404.641-2.371 1.721-.032.035 4.649-6.243.503-10.294-4.714-4.606-9.283.499-9.952 5.129"/><path d="M71.19 200.583c.312-2.077 1.086-8.149 3.994-8.533 3.108-.41 4.915 2.035 5.098 4.968 1.722 27.549-15.056 11.528-8.101 2.243"/><path d="M61.78 192.446c-4.054 2.928-7.218 8.999-7.475 14.091-.081 1.595-.097 4.866 1.672 5.662 1.661.747 4.061.756 5.504-.38.622-.49 1.283-1.465 1.283-2.272 0-.31-.774-.872-.471-.804.83.187 3.4.117 2.549.117-2.704 0 1.932 4.208 5.99 3.558 2.879-.461 2.924-5.644 2.566-9.395-.575-6.041-7.322-15.794-13.475-9.044"/></g><path d="M45.141 197.676h7.491v12.528h-7.491z"/><g class="B C D E"><path d="M51.078 200.172c-7.367-6.513.959-11.114 4.711-7.231 2.102 2.176 1.818 7.726 1.818 10.396 0 7.862-3.753 11.41-8.459 8.643-1.993-1.638-2.164-2.921-2.164-2.921"/><path d="M48.775 197.602c-10.296-19.225-14.708 9.259-8.793 14.272 4.17 3.534 11.656-.43 5.657-6.87"/></g></g><path d="M62.628 203.148c1.026-.596 1.155-1.723 1.155-1.723.08.982.461 1.37 1.162 1.75m42.97-3.964c.596 1.026 1.723 1.155 1.723 1.155-.982.08-1.37.461-1.75 1.162" fill="none" class="B C D E"/><g class="F"><use xlink:href="#B" class="B C E"/><path d="M121.957 229.975c5.755 6.669 12.44-1.701 3.296-5.419 7.769-2.191 3.191-12.406-4.31-10.396-1.431.383-2.947.667-3.531 1.996-1.915 4.911-3.781 12.153-1.376 17.021 3.268 5.587 5.803.966 5.921-3.202z" class="B C E"/><path d="M112.091 222.469c3.725-1.871 6.433 4.512 2.078 5.298-.93.168-1.4.249-2.115-.274" class="B C D E"/><path d="M110.429 221.644h2.431v7.203h-2.431z"/><g class="B C E"><path d="M111.657 222.12c6.263 1.962 7.811-7.965 1.351-8.027-2.101-.02-4.131.712-5.766 2.02-4.459 4.397-2.717 12.403-.813 17.549 2.267 2.112 9.059 1.869 10.407-1.335 1.405-3.337-2.557-5.18-5.186-4.45" class="D"/><path d="M101.473 227.087c.643-1.087 1.627-1.94 2.165-3.232 1.797-4.313.03-11.334-6.007-9.893-6.148 1.817-7.33 19.959-1.065 21.189 1.276.311 5.818 1.29 8.365.137 6.93-3.136 2.792-12.027-3.458-8.201z"/><path d="M91.939 235.408c-2.251.416-7.322-3.211-3.659-4.931.646-.303-1.284.817-1.991.775-.603-.035-1.105-.131-1.651-.471 2.843 3.58-2.892 6.644-6.382 4.427-6.283-3.992 2.332-18.55 7.301-20.474 2.476-.484 4.84 1.811 5.956 3.876 1.977 3.593 8.107 15.833.425 16.798z"/><path d="M69.778 235.845c5.106 1.605 14.299-.606 9.984-7.404-1.179-1.857-4.395-.205-5.112-2.304-.679-1.985 1.958-4.075 3.506-2.896 1.939 1.417 3.769.162 4.3-1.441 1.07-3.233-1.575-7.32-5.979-8.191-10.873-2.15-13.846 19.551-6.698 22.235z"/><use xlink:href="#B" x="26.386" y="22.612"/></g></g><path d="M121.907 219.22c.503 1.026 1.453 1.155 1.453 1.155-.828.08-1.155.461-1.476 1.162m-34.348 4.203c-1.026-.596-1.155-1.723-1.155-1.723-.08.982-.461 1.37-1.162 1.75" fill="none" class="D B C E"/><g transform="matrix(0 .645313 -.652075 0 111.64792 215.29639)"><g class="G"><path d="M23.233 104.982a3.64 3.64 0 0 0-3.644 3.624 3.64 3.64 0 0 0 3.619 3.649 3.64 3.64 0 0 0 3.654-3.614 3.64 3.64 0 0 0-3.609-3.659"/><use xlink:href="#C" transform="matrix(0 -.32676 .324534 0 -6.96996 139.24687)" stroke-width="17.671" paint-order="normal" class="B C D"/></g><path d="M24.544 101.882c3.844.978 5.78-1.956 5.78-1.956s-.692 5.03-2.935 6.497c-2.037 1.333-3.46 1.118-3.46 1.118z" stroke-width="2.708" paint-order="stroke fill markers" class="B C F"/><use xlink:href="#C" transform="matrix(0 -.29814 .291898 0 -4.669816 137.3038)" stroke="#e1f0da" stroke-width="19.507" paint-order="normal" class="B D G"/></g><path d="M128.478 192.429a1.9 1.9 0 0 0-.857 3.592c-.147.924-.278 2.247-.23 3.922.006.199-.009.396-.037.591-.975-.644-2.108-.987-3.265-.988a5.92 5.92 0 0 0-3.03.855c-.016-.152-.027-.304-.022-.458.046-1.639-.078-2.94-.221-3.862a1.9 1.9 0 0 0-.94-3.552h-.01a1.9 1.9 0 0 0-1.198 3.358c.14 1.23.187 2.806-.158 4.32-.435 1.915-.462 3.486-.391 4.551a6.47 6.47 0 0 0-.097 1.057c0 1.663.639 3.257 1.777 4.433a5.97 5.97 0 0 0 4.29 1.836c3.232-.008 5.891-2.632 6.046-5.968.118-.557.496-2.776-.216-5.909-.362-1.592-.293-3.255-.136-4.509a1.9 1.9 0 0 0-1.293-3.27z" stroke-width="1.6" paint-order="stroke fill markers" class="B C F"/><g class="G"><use xlink:href="#D"/><use xlink:href="#D" x="7.668" y="0.029"/></g><path d="M122.747 202.537c1.261.784 2.682.001 2.682.001" fill="none" stroke-width="1.429" class="B C D"/></g><defs ><path id="B" d="M28.268 213.671c-2.295-.378-4.789-2.212-5.835-5.231-1.037-2.992-.194-7.079 3.493-7.226-1.502.123-1.872 1.779-1.01 2.893 1.501 1.942 4.155 2.042 5.586 1.1 1.014-.668 1.961-2.224.352-3.289-1.403-.834-2.93-1.638-3.674-3.311-1.618-3.641 2.32-7.011 6.285-7.961 2.917-.703 7.475 1.219 8.536 3.332 1.606 3.201-1.937 5.667-4.799 4.458 1.034.624 1.83.643 3.169 1.891 2.597 2.405 1.88 8.741.052 11.122-2.754 3.586-10.082 2.614-11.698 2.313z"/><path id="C" d="M51.176 79.343c-4.658-6.722-.29-15.61 6.354-18.975 10.331-5.233 22.5 1.145 26.809 11.219 5.924 13.848-2.57 29.45-16.083 34.644-17.337 6.663-36.427-3.988-42.478-20.947-7.426-20.814 5.403-43.419 25.812-50.313 24.284-8.203 50.42 6.815 58.147 30.676 3.269 10.093 3.19 21.118-.06 31.204"/><path id="D" d="M120.262 192.746c.554-.001 1.004.447 1.006 1s-.445 1.005-.999 1.007-1.005-.444-1.009-.998.442-1.006.996-1.01"/></defs></svg>