<svg xmlns="http://www.w3.org/2000/svg" width="94.42" height="93.475" viewBox="0 0 24.982 24.732" fill="#e1f0da" xmlns:v="https://vecta.io/nano"><g stroke="#e1f0da"><g stroke-linecap="round"><path d="M8.521.582v19.094" stroke-width="1.164"/><path transform="matrix(.84342 -.53726 .62608 .77976 -41.304 -24.276)" d="M7.489 60.99c2.098.046 3.744 1.092 3.695 2.348s-1.775 2.255-3.874 2.242-3.791-1.033-3.798-2.289 1.675-2.283 3.773-2.303" stroke-width="1.858"/></g><path d="M11.72 12.149h12.337" stroke-width="1.852" stroke-linecap="round"/></g><path d="M13.34 23.545q.071-.395.337-1.086.248-.711.586-1.481.337-.77.674-1.441.355-.671.603-1.007-.124-.355-.248-1.007-.124-.651-.213-1.382-.089-.73-.142-1.362-.053-.651-.053-1.007h2.627q-.035.651 0 1.224.018.494.035 1.007.035.513.106.79.177-.276.355-.77.195-.494.355-1.007.195-.592.373-1.244h2.538q-.177.494-.461 1.145-.266.651-.586 1.342-.319.671-.621 1.244-.302.572-.55.928.142.415.266 1.125.142.691.266 1.461.124.77.213 1.461.089.671.106 1.066H17.28q0-.257-.018-.671-.018-.434-.053-.888-.035-.474-.089-.869-.053-.395-.106-.572-.124.217-.302.711-.16.494-.319 1.007l-.408 1.283zm1.402-.928h.053q.177-.276.461-.829.302-.553.621-1.184.319-.651.55-1.184.231-.553.266-.829.018-.079.018-.158 0-.099 0-.178 0-.415-.053-.967-.035-.553-.106-1.125-.071-.592-.142-1.066-.053-.494-.089-.75h-.071q.035.415.089 1.165.071.73.124 1.481.053.75.053 1.224 0 .118 0 .217 0 .079-.018.138-.018.197-.213.711-.195.513-.479 1.145-.284.632-.568 1.224-.284.592-.497.967zm3.532 0h.071q-.018-.217-.071-.671-.035-.474-.089-1.046-.053-.592-.089-1.145-.018-.572-.018-.948 0-.138 0-.237 0-.118.018-.178.018-.197.213-.711.195-.513.479-1.145.284-.632.568-1.224.284-.592.497-.967H19.8q-.16.257-.461.809-.302.553-.639 1.204-.319.651-.55 1.204-.231.553-.248.809-.018.079-.018.158 0 .079 0 .178 0 .415.035.967.053.553.124 1.145.071.572.124 1.066.071.474.106.73z"/><path d="M14.884 13.631c-.069 0-.125.063-.125.14 0 .245.018.583.054 1.019l.142 1.368.214 1.392c.078.406.156.71.236.953-.166.232-.353.538-.576.96l-.679 1.451-.588 1.486c-.18.467-.295.834-.345 1.113-.016.087.044.167.123.167h2.644c.053 0 .1-.037.118-.093l.408-1.283v-.001l.317-1.001v-.001c.056-.154.091-.216.138-.327l.029.158.088.859v.001l.053.883h0l.017.664c0 .077.056.139.126.139h2.627c.072 0 .129-.067.125-.146-.012-.271-.048-.629-.108-1.078h0l-.213-1.465-.266-1.463-.001-.004c-.078-.445-.163-.789-.253-1.069.162-.237.333-.522.523-.883l.624-1.249.588-1.347.465-1.154c.033-.092-.028-.192-.116-.192h-2.538c-.055 0-.104.04-.12.099l-.37 1.236-.352.999c-.061.168-.117.255-.174.38-.015-.119-.036-.195-.047-.348v-.002l-.036-1.005c-.023-.379-.023-.781 0-1.21.004-.08-.053-.148-.125-.148zm.133.279h2.369v1.094l.035 1.002a4.81 4.81 0 0 0 .111.823c.029.113.162.139.223.043.127-.197.247-.462.367-.795l.358-1.014.001-.002.344-1.15h2.254l-.381.945-.584 1.339-.618 1.237-.541.913c-.027.038-.034.089-.018.135.091.264.179.633.261 1.102l.266 1.458.212 1.456v.001l.09.906h-2.365l-.014-.538-.054-.893h0l-.09-.877c-.036-.267-.071-.461-.112-.596-.033-.111-.168-.13-.225-.031-.091.16-.193.401-.313.734l-.321 1.013-.379 1.189h-2.38c.055-.236.129-.507.277-.891l.583-1.475.671-1.434c.234-.442.433-.773.591-.986.029-.039.036-.092.02-.139-.079-.225-.161-.555-.243-.986l-.212-1.371-.141-1.356h0l-.045-.854zm1.233.293c-.074 0-.132.071-.125.153l.088 1.162.125 1.481.053 1.213v.217c0 .041-.004.072-.011.094-.003.01-.005.02-.006.03-.008.093-.075.333-.204.67l-.476 1.137-.567 1.22-.492.958c-.053.093.007.214.106.214h.053c.041 0 .079-.022.102-.058.122-.191.277-.469.466-.837l.002-.004.621-1.185.554-1.192c.156-.374.248-.652.276-.865a.87.87 0 0 0 .021-.183v-.178a10.38 10.38 0 0 0-.054-.977v-.005l-.107-1.129v-.001l-.142-1.064v-.006l-.089-.748c-.009-.068-.062-.118-.123-.119zm3.55 0c-.041 0-.019.114-.042.152-.109.176-.325.355-.527.725l-.64 1.207-.555 1.215c-.156.373-.244.644-.259.854-.011.057-.019.115-.019.172v.178l.036.977.125 1.153.124 1.064.107.735c.01.068.062.118.124.118h.071c.074 0 .132-.07.125-.152l-.071-.67v-.005l-.088-1.043h0l-.088-1.136-.018-.943v-.237c0-.071.007-.12.011-.133s.005-.02.006-.031c.008-.093.075-.332.204-.67l.476-1.137.567-1.22.492-.958c.053-.093-.007-.215-.106-.214zm-1.823 4.142c-.002.019-.006.027-.006.03zm-1.354.236l-.006.03c.003-.021.006-.027.006-.03z"/><path d="M15.782 10.333l.864-6.977h-1.635l.201-1.55c.36 0 .746-.144 1.157-.431s.74-.695.987-1.223h2.16l-1.28 10.181zm1.296-.81h.062l.632-4.358.463-4.255h-.062l-.51 3.86z" stroke="#e1f0da" stroke-linejoin="round" stroke-width=".266"/></svg>