<svg xmlns="http://www.w3.org/2000/svg" width="106.881" height="93.475" viewBox="0 0 28.279 24.732" xmlns:v="https://vecta.io/nano"><style><![CDATA[.B{stroke:#e1f0da}.C{fill-opacity:0}.D{stroke-linecap:round}]]></style><g transform="translate(-81.523 -52.84)" class="B"><g fill="#f5aaff" stroke-width="1.164" class="D C"><path d="M104.587 53.422v19.094"/><path d="M104.587 53.45c1.395 4.13 4.124 4.882 4.595 8.702"/><path d="M104.624 56.023c1.395 2.751 4.124 3.251 4.595 5.796"/></g><path d="M7.488 60.99c2.098.046 3.744 1.092 3.695 2.348s-1.775 2.255-3.874 2.242-3.791-1.033-3.798-2.289 1.675-2.283 3.773-2.303" transform="matrix(.843417 -.53726 .626081 .779758 54.762 28.564)" fill="#e1f0da" stroke-width="1.858" class="D"/><g fill="#f5aaff" stroke-width="1.852" class="C"><path d="M82.449 61.116v13.91" class="D"/><path d="M82.83 67.89h17.248"/><path d="M99.136 57.601c-2.541-5.264-9.155-4.425-13.181 0" class="D"/></g><path d="M82.919 31.999l.47-3.436 2.74 2.125z" transform="matrix(1.446128 .397978 -.185848 1.47516 -29.557783 -21.418851)" fill="#e1f0da" stroke-width=".89" stroke-linejoin="round"/></g></svg>