<svg xmlns="http://www.w3.org/2000/svg" width="93.453" height="45.146" viewBox="0 0 24.726 11.945" fill="#e1f0da" xmlns:v="https://vecta.io/nano"><path d="M.12 11.807L1.593.14H5.71q1.047 0 1.509.434.461.434.461 1.184 0 .079 0 .178 0 .099-.018.197l-.16 1.263q-.089.829-.532 1.441-.444.592-1.296.691v.039q.674 0 1.118.434.461.415.461 1.342 0 .099-.018.217 0 .118-.018.257l-.195 1.52q-.177 1.402-.941 1.935-.763.533-2.006.533zm3.834-.888q.568 0 1.047-.632.497-.632.674-1.994v.039q0 0 .018-.178.018-.197.035-.375.018-.118.018-.237.018-.138.018-.257 0-.592-.248-1.026-.248-.454-.816-.454.39 0 .816-.632.408-.632.586-2.013.035-.336.053-.592.035-.276.035-.494 0-.651-.266-.869-.266-.237-.958-.237l-.568.02-.018.039.568.02q.657 0 .887.237.231.217.231.75 0 .217-.035.513-.035.276-.071.612-.142 1.125-.479 1.895-.337.75-.958.75h-.71v.039h.71q.639 0 .87.336.231.336.231.908 0 .296-.053.691l-.053.513q-.177 1.323-.603 1.935-.426.612-.958.612l-.781.02v.039zm-2.254 0h.053l.674-5.132.586-4.777h-.071l-.692 4.777zm2.218-5.981h.213q.195 0 .355-.454.071-.217.124-.494.071-.296.106-.612.035-.336.053-.612.018-.296.035-.513v-.079q0-.375-.213-.375h-.266zm-.657 5.271h.266q.195 0 .319-.494.124-.474.213-1.165.035-.276.071-.572.035-.316.035-.572 0-.217-.053-.355-.035-.158-.177-.158h-.266zm4.1 1.599L8.834.14h4.117q1.047 0 1.509.434.461.434.461 1.184 0 .079 0 .178 0 .099-.018.197l-.231 1.935q-.124.908-.408 1.658-.266.75-.781 1.204-.497.454-1.313.454h-1.313l-.55 4.422zm3.656-5.251h.71q.532 0 .87-.434.337-.454.515-1.165.195-.711.302-1.5.053-.336.089-.632.035-.316.035-.572 0-.572-.266-.908-.248-.355-1.012-.375l-.568.02-.018.039.568.02q.657 0 .87.276.231.257.231.77 0 .276-.053.651-.035.355-.089.809-.071.651-.231 1.342-.142.671-.444 1.145-.284.454-.799.454l-.71.02zm-2.112 4.323h.071l.728-4.994.532-4.876h-.071l-.692 4.876zm2.165-5.192h.213q.213 0 .337-.434.071-.217.142-.572.071-.375.142-.928.142-1.105.16-1.52v-.079q0-.355-.231-.355h-.266zm3.354 6.119L15.897.14h3.585v5.962L21.009.14h3.585l-1.473 11.666h-2.467l1.012-8.133-1.952 8.133h-1.881l.071-8.133-1.012 8.133zm1.313-.928h.071l.728-4.994.532-4.876h-.071l-.692 4.876zm6.229 0h.071l.728-4.994.532-4.876h-.071l-.692 4.876zm-3.088 0l.426-1.421q.195-.632.444-1.441.248-.809.497-1.698.248-.908.497-1.796.266-.908.479-1.638l.479-1.619h-.035l-1.597 5.034-1.154 4.303q0-.336 0-.671 0-.336-.018-.691l-.018-1.382q-.018-.75-.053-1.54l-.071-1.796q-.018-.454-.053-.849-.018-.395-.035-.77l-.106-1.658h-.035l.035 1.638q.018.375.018.79 0 .395.018.849 0 .454 0 .908.018.454.035.908.018.849.053 1.658.053.79.106 1.421.035.494.053.928.035.434.035.533z"/><path d="M1.592 0c-.063 0-.115.052-.124.12L-.005 11.787a.15.15 0 0 0 .03.111c.024.03.058.048.094.048h3.958c.844 0 1.538-.181 2.072-.554.547-.382.876-1.074.998-2.033h0l.196-1.52a2.17 2.17 0 0 0 .017-.253V7.58l.019-.236c0-.643-.165-1.14-.507-1.449-.195-.19-.433-.303-.689-.377.351-.124.664-.3.883-.592.311-.429.498-.936.56-1.511v-.001l.159-1.254c.013-.075.02-.15.02-.225v-.178c0-.532-.171-.976-.506-1.291C6.956.144 6.423 0 5.709 0zm7.241 0c-.063 0-.115.052-.124.12L7.236 11.787a.15.15 0 0 0 .03.111.12.12 0 0 0 .095.048h2.946c.063 0 .116-.051.125-.12l.535-4.302h1.204c.565 0 1.036-.159 1.393-.486.36-.318.633-.74.817-1.258v-.002c.193-.511.332-1.075.416-1.689l.231-1.937-.002.009c.013-.075.02-.15.02-.225v-.178c0-.532-.171-.976-.506-1.291C14.197.144 13.665 0 12.951 0zm7.064 0c-.063 0-.115.052-.124.12L14.3 11.787a.15.15 0 0 0 .03.111c.024.03.058.048.094.048h2.467c.063 0 .116-.051.125-.12l.743-5.972-.052 5.951c0 .037.013.073.037.099s.056.041.089.041h1.881c.057 0 .106-.042.121-.103l1.429-5.953-.733 5.898a.15.15 0 0 0 .03.111c.024.03.058.048.094.048h2.467c.062 0 .115-.051.124-.12L24.718.159a.15.15 0 0 0-.03-.111.12.12 0 0 0-.095-.048h-3.585c-.056 0-.105.041-.12.101l-1.28 5.001V.139c0-.037-.013-.073-.037-.099S19.515 0 19.482 0zM1.701.279H5.71c.682 0 1.156.146 1.428.402.28.264.417.609.417 1.078v.178c0 .057-.005.113-.015.17l-.161 1.271c-.057.532-.225.985-.505 1.372-.273.363-.668.577-1.211.64-.064.007-.113.067-.113.139v.039c0 .037.013.073.037.099s.056.041.089.041c.425 0 .763.133 1.035.399.276.248.419.645.419 1.237 0 .057-.005.122-.016.195-.001.008-.002.015-.002.023a1.87 1.87 0 0 1-.017.237l-.195 1.52c-.115.909-.413 1.508-.883 1.836-.483.337-1.126.511-1.938.511H.263zm7.241 0h4.009c.682 0 1.155.146 1.427.402.28.264.417.609.417 1.078v.178c0 .057-.005.113-.015.17l-.232 1.941c-.081.595-.215 1.137-.4 1.625-.172.484-.418.863-.743 1.149-.307.28-.712.424-1.235.424h-1.313c-.063 0-.115.052-.124.12l-.536 4.301H7.504zm7.063 0h3.351v5.822c0 .069.047.128.108.137s.12-.033.138-.099l1.5-5.86h3.346l-1.438 11.388h-2.214l.992-7.974c.008-.073-.035-.14-.1-.154s-.128.029-.146.1l-1.928 8.029h-1.658l.07-7.992c.001-.074-.05-.135-.116-.14s-.124.047-.133.12l-.997 8.012h-2.213zM4.961.829l-.568.019c-.046.002-.088.031-.108.077l-.018.04c-.019.043-.017.093.005.134s.061.066.104.068l.568.02c.428 0 .696.087.806.2.119.112.19.315.19.648a4.26 4.26 0 0 1-.035.495v-.001l-.071.615c-.093.738-.25 1.355-.467 1.851-.211.468-.477.672-.845.672h-.71c-.069 0-.125.062-.126.139v.04c0 .077.056.139.126.139h.71c.406 0 .65.107.77.281.133.193.205.462.205.823a5.12 5.12 0 0 1-.052.67l-.053.514c-.117.868-.316 1.493-.578 1.869-.268.386-.548.558-.86.558l-.784.019c-.068.002-.123.064-.122.14v.039c0 .076.054.138.122.14l.781.02c.423 0 .81-.239 1.145-.68l.001-.001c.349-.444.572-1.123.694-2.021l.028-.187.035-.375-.001.007a1.75 1.75 0 0 0 .019-.26l.018-.257c0-.416-.088-.787-.268-1.1-.111-.202-.281-.327-.477-.412.16-.117.316-.287.471-.516.294-.455.49-1.145.609-2.078l.054-.592v-.009c.023-.185.036-.354.036-.504 0-.454-.093-.794-.317-.978C5.779.902 5.437.829 4.964.829zm7.294 0l-.568.019c-.046.002-.088.031-.108.077l-.018.04c-.019.043-.017.093.005.134s.061.066.104.068l.568.02c.426 0 .678.097.778.228.131.146.2.36.2.679 0 .174-.017.385-.052.63l-.089.813a11.43 11.43 0 0 1-.228 1.325c-.092.436-.234.801-.425 1.099-.17.271-.386.395-.696.395l-.713.019c-.068.002-.123.064-.122.14v.04c0 .077.056.139.126.139h.71c.386 0 .718-.166.965-.483.24-.323.418-.73.54-1.218a11.58 11.58 0 0 0 .305-1.515l.001-.003.089-.634.037-.591c0-.403-.097-.742-.295-.995-.204-.289-.581-.414-1.105-.427zM2.941.868c-.061 0-.114.05-.123.117l-.692 4.777-.551 5.138a.15.15 0 0 0 .031.109.12.12 0 0 0 .094.047h.053c.062 0 .115-.051.124-.119l.674-5.133.586-4.778a.15.15 0 0 0-.03-.111c-.024-.03-.058-.048-.094-.048zm7.224 0c-.062 0-.115.05-.124.118l-.692 4.876-.568 4.999a.15.15 0 0 0 .031.11.12.12 0 0 0 .094.047h.071c.061 0 .114-.05.123-.117l.728-4.995.533-4.881a.15.15 0 0 0-.031-.11.12.12 0 0 0-.094-.047zm6.833 0c-.062 0-.115.05-.124.118l-.692 4.876-.569 4.999a.15.15 0 0 0 .031.11.12.12 0 0 0 .094.047h.071c.062 0 .114-.049.124-.117l.727-4.995.534-4.881a.15.15 0 0 0-.031-.11.12.12 0 0 0-.094-.047zm6.229 0c-.062 0-.114.05-.123.118l-.692 4.876-.569 4.999a.15.15 0 0 0 .031.11.12.12 0 0 0 .094.047h.071c.061 0 .114-.05.123-.117l.728-4.995.533-4.881a.15.15 0 0 0-.031-.11.12.12 0 0 0-.094-.047zm-4.703.237c-.034 0-.066.015-.09.042s-.037.063-.036.101l.036 1.639.017.786.018.855v.902l.036.914.053 1.659.107 1.427-.001-.002.053.923.036.527c0 .068.045.126.105.137s.119-.028.139-.093l.426-1.42.444-1.442.498-1.701.497-1.795v-.002l.479-1.636v-.001l.479-1.618c.013-.043.006-.089-.018-.125s-.061-.058-.102-.058h-.035c-.053 0-.101.037-.119.093L19.95 6.251l-.916 3.42-.011-.434v-.006l-.017-1.376-.054-1.544v-.001l-.071-1.796-.053-.849-.001-.007-.035-.763-.107-1.661c-.005-.073-.059-.13-.125-.13zm-12.609.073l.004.004zm7.284.047l.006.008zm-8.874.433c-.062 0-.115.051-.124.119l-.408 3.139a.15.15 0 0 0 .029.112c.024.031.059.048.095.048h.213c.109 0 .207-.067.281-.161a1.34 1.34 0 0 0 .191-.381c.05-.153.092-.322.128-.509h0a5.18 5.18 0 0 0 .11-.63l.054-.619.035-.511.001-.092c0-.14-.017-.258-.073-.356s-.162-.158-.266-.158zm7.241 0c-.063 0-.116.051-.125.12l-.497 3.889a.15.15 0 0 0 .029.111c.024.03.058.048.095.048h.213c.109 0 .213-.062.286-.157s.126-.218.171-.373c.05-.153.097-.347.145-.586l.144-.939.161-1.533v-.086c0-.135-.02-.253-.082-.348s-.169-.146-.275-.146zm-7.133.279h.158c.038 0 .038.002.054.029s.034.096.034.207v.074l-.035.509v-.001l-.053.605a4.88 4.88 0 0 1-.103.592c-.036.185-.076.342-.12.479-.05.142-.102.243-.146.299s-.07.066-.092.066h-.068zm7.241 0h.157c.048 0 .056.007.071.031s.034.083.034.185v.072c-.011.265-.064.772-.159 1.507l-.14.917-.138.555c-.04.139-.084.232-.124.282s-.063.06-.096.06h-.068zM3.669 6.751c-.063 0-.116.051-.125.12l-.408 3.316a.15.15 0 0 0 .03.111c.024.03.058.048.094.048h.266c.113 0 .212-.077.279-.181s.117-.24.161-.413v-.001a9.55 9.55 0 0 0 .216-1.183l.071-.574a5.21 5.21 0 0 0 .037-.59 1.15 1.15 0 0 0-.061-.397.36.36 0 0 0-.101-.186.29.29 0 0 0-.194-.07zm.109.279h.157c.026 0 .033.005.037.009s.011.012.018.043a.15.15 0 0 0 .006.021c.026.068.043.169.043.301 0 .164-.012.349-.035.555l-.07.57c-.059.456-.129.839-.21 1.146-.039.157-.084.267-.123.327s-.058.066-.076.066h-.122z"/></svg>