<svg xmlns="http://www.w3.org/2000/svg" width="101.284" height="93.468" viewBox="0 0 26.798 24.73" xmlns:v="https://vecta.io/nano"><style><![CDATA[.B{stroke-linecap:round}.C{fill-opacity:0}.D{stroke-width:1.852}]]></style><g fill="#f5aaff" stroke="#e1f0da" class="B C"><g class="D"><path d="M13.502 2.154a8.42 8.42 0 0 1-6.239 15.481A8.42 8.42 0 0 1 9.208 1.058"/><path d="M9.346 5.073v4.203m4.269 4.165L9.521 9.785"/></g><g stroke-width="1.164"><path d="M21.583.582v19.094"/><path d="M21.583.61c1.395 4.13 4.124 4.882 4.595 8.702"/><path d="M21.62 3.183c1.395 2.751 4.124 3.251 4.595 5.796"/></g></g><path d="M7.488 60.99c2.098.046 3.744 1.092 3.695 2.348s-1.775 2.255-3.874 2.242-3.791-1.033-3.798-2.289 1.675-2.283 3.773-2.303" transform="matrix(.843417 -.53726 .626081 .779758 -28.242 -24.276)" fill="#e1f0da" stroke="#e1f0da" class="B D"/></svg>