<svg xmlns="http://www.w3.org/2000/svg" width="149.174" height="89.923" viewBox="0 0 39.469 23.792" fill="#e1f0da" stroke="#e1f0da" stroke-width="1.852" stroke-linejoin="round" xmlns:v="https://vecta.io/nano"><rect width="37.617" height="21.94" x=".926" y=".926" ry="3.44" fill-opacity="0"/><rect width="3.906" height="3.6" x="10.933" y="4.033" ry=".564"/><rect width="3.906" height="3.6" x="10.926" y="10.234" ry=".564"/><rect width="3.906" height="3.6" x="3.877" y="4.033" ry=".564"/><rect width="3.906" height="3.6" x="3.87" y="10.234" ry=".564"/><rect width="3.906" height="3.6" x="17.99" y="4.033" ry=".564"/><rect width="3.906" height="3.6" x="17.983" y="10.234" ry=".564"/><rect width="3.906" height="3.6" x="25.046" y="4.033" ry=".564"/><rect width="3.906" height="3.6" x="25.039" y="10.234" ry=".564"/><rect width="3.906" height="3.6" x="32.103" y="4.033" ry=".564"/><rect width="3.906" height="3.6" x="32.096" y="10.234" ry=".564"/><rect width="3.906" height="3.6" x="3.87" y="16.486" ry=".564"/><rect width="3.906" height="3.6" x="32.095" y="16.591" ry=".564"/><rect width="18.017" height="3.6" x="10.926" y="16.499" ry=".564"/></svg>