<svg xmlns="http://www.w3.org/2000/svg" width="148.101" height="161.019" viewBox="0 0 39.185 42.603" xmlns:v="https://vecta.io/nano"><g stroke-linejoin="round" transform="matrix(.161798 .603838 -.610165 .163493 83.670893 -9.141992)"><path d="M122.897 196.106c-3.62 6.075 4.371 7.451-1.802 10.901s-3.159-4.077-10.23-4.175-4.267 7.51-10.342 3.89 1.951-4.775-1.499-10.947-8.638.06-8.54-7.011 5.11-.697 8.731-6.772-4.371-7.451 1.802-10.901 3.159 4.077 10.23 4.175 4.267-7.51 10.342-3.89-1.951 4.775 1.499 10.947 8.638-.06 8.54 7.011-5.11.697-8.731 6.772z" transform="matrix(1.131119 -1.11939 1.131119 1.11939 -318.94511 23.150076)" fill="#e1f0da" stroke="#e1f0da" stroke-width="1.456" paint-order="stroke fill markers"/><path d="M51.176 79.343c-4.658-6.722-.29-15.61 6.354-18.975 10.331-5.233 22.5 1.145 26.809 11.219 5.924 13.848-2.57 29.45-16.083 34.644-17.337 6.663-36.427-3.988-42.478-20.947-7.426-20.814 5.403-43.419 25.812-50.313 24.284-8.203 50.42 6.815 58.147 30.676 3.269 10.093 3.19 21.118-.06 31.204" transform="matrix(0 -.371153 .363383 0 -5.583235 135.42946)" fill="none" stroke="#899d7e" stroke-width="19.507" stroke-linecap="round" paint-order="normal"/></g></svg>