<svg xmlns="http://www.w3.org/2000/svg" width="107.032" height="137.299" viewBox="0 0 28.319 36.327" xmlns:v="https://vecta.io/nano"><path d="M19.781 29.255v-7.46l-1.439.897v-1.725l5.571-3.47v1.725l-1.439.897v7.46zm1.287-1.532l.085-.053.068-3.974-.068-3.626 1.947-1.244v-.031l-1.981 1.203-1.88 1.202v.031l1.829-1.108-.068 3.71z" fill="#e1f0da" paint-order="stroke fill markers"/><g fill="none" stroke="#e1f0da" stroke-width="2.1" stroke-linejoin="round"><path d="M1.05 15.128v14.207l13.045 5.941 13.174-8.008V12.674l-6.07-6.329L8.024 1.05z" paint-order="stroke fill markers"/><g stroke-linecap="round"><path d="M1.05 15.128l13.174 5.037 13.045-7.491" paint-order="stroke fill markers"/><path d="M21.198 6.346l-6.975 13.82-.129 15.111" paint-order="stroke fill markers"/></g></g><g transform="matrix(.434661 .154032 -.265062 .570608 11.576469 -36.73873)"><g fill="#e1f0da"><ellipse cx="41.596" cy="74.989" rx="6.067" ry="6.269"/><path d="M35.764 62.814c1.182 3.487-.096 7.024-.165 10.54-.509 2.144.99 2.294 2.633 2.09l5.532.018c-3.238-1.657-5.954-4.809-5.267-8.659.055-1.87-.368-3.645-2.436-3.874l-.16-.062-.137-.053z"/><path d="M47.679 62.814c-1.182 3.487.096 7.024.165 10.54.509 2.144-.99 2.294-2.633 2.09l-5.532.018c3.238-1.657 5.954-4.809 5.267-8.659-.055-1.87.368-3.645 2.436-3.874l.16-.062.137-.053zm-10.296-1.111a1.899 1.899 0 0 1 .013 3.798 1.899 1.899 0 0 1-.024-3.798"/><path d="M-45.987 61.603a1.9 1.9 0 0 1 1.903 1.893 1.9 1.9 0 0 1-1.89 1.906 1.9 1.9 0 0 1-1.908-1.887 1.9 1.9 0 0 1 1.885-1.911" transform="scale(-1 1)"/></g><path d="M37.771 61.92a1.004 1.004 0 0 1 .007 2.008 1.004 1.004 0 0 1-.013-2.008m7.674.029a1.004 1.004 0 0 1 .007 2.008 1.004 1.004 0 0 1-.013-2.008" fill="#899d7e"/><path d="M40.255 71.711c.806.512 1.86.413 2.682.001" fill="none" stroke="#899d7e" stroke-width="1.429" stroke-linecap="round" stroke-linejoin="round"/></g></svg>